<?xml version="1.0" encoding="utf-8"?>
<!-- Generator: Adobe Illustrator 24.0.0, SVG Export Plug-In . SVG Version: 6.00 Build 0)  -->
<svg version="1.1"
	 id="svg8" xmlns:cc="http://creativecommons.org/ns#" xmlns:dc="http://purl.org/dc/elements/1.1/" xmlns:inkscape="http://www.inkscape.org/namespaces/inkscape" xmlns:rdf="http://www.w3.org/1999/02/22-rdf-syntax-ns#" xmlns:sodipodi="http://sodipodi.sourceforge.net/DTD/sodipodi-0.dtd" xmlns:svg="http://www.w3.org/2000/svg"
	 xmlns="http://www.w3.org/2000/svg" xmlns:xlink="http://www.w3.org/1999/xlink" x="0px" y="0px" viewBox="0 0 595.3 841.9"
	 style="enable-background:new 0 0 595.3 841.9;" xml:space="preserve">
<style type="text/css">
	.st0{fill-rule:evenodd;clip-rule:evenodd;fill:#3C0F61;}
	.st1{fill-rule:evenodd;clip-rule:evenodd;fill:#B96704;}
	.st2{fill-rule:evenodd;clip-rule:evenodd;fill:#451165;}
	.st3{fill-rule:evenodd;clip-rule:evenodd;fill:#D17604;}
	.st4{fill-rule:evenodd;clip-rule:evenodd;fill:#FEB100;}
	.st5{fill-rule:evenodd;clip-rule:evenodd;fill:#E19A00;}
	.st6{fill-rule:evenodd;clip-rule:evenodd;fill:#F07669;}
	.st7{fill-rule:evenodd;clip-rule:evenodd;fill:#D36764;}
	.st8{fill-rule:evenodd;clip-rule:evenodd;fill:#7D6BCC;}
	.st9{fill-rule:evenodd;clip-rule:evenodd;fill:#8778CD;}
	.st10{fill-rule:evenodd;clip-rule:evenodd;fill:#9284D1;}
	.st11{fill-rule:evenodd;clip-rule:evenodd;fill:#FFFFFF;}
	.st12{fill:#F58474;}
	.st13{opacity:0.91;fill:#451165;enable-background:new    ;}
	.st14{fill:#451165;}
	.st15{fill:none;stroke:#451165;stroke-miterlimit:10;}
	.st16{fill-rule:evenodd;clip-rule:evenodd;fill:#F07669;stroke:#EF574C;stroke-width:5;stroke-miterlimit:10;}
	.st17{fill:none;stroke:#EF574C;stroke-width:5;stroke-miterlimit:10;}
	.st18{fill-rule:evenodd;clip-rule:evenodd;fill:#EF574C;stroke:#EF574C;stroke-width:5;stroke-miterlimit:10;}
	.st19{fill:none;stroke:#451165;stroke-width:5;stroke-miterlimit:10;}
	.st20{fill-rule:evenodd;clip-rule:evenodd;fill:#EF574C;}
	.st21{fill-rule:evenodd;clip-rule:evenodd;fill:#D36764;stroke:#D24B47;stroke-width:5;stroke-miterlimit:10;}
	.st22{fill:none;stroke:#D24B47;stroke-width:5;stroke-miterlimit:10;}
	.st23{fill-rule:evenodd;clip-rule:evenodd;fill:#D24B47;stroke:#D24B47;stroke-width:5;stroke-miterlimit:10;}
	.st24{fill:none;stroke:#3C0F61;stroke-width:5;stroke-miterlimit:10;}
	.st25{fill-rule:evenodd;clip-rule:evenodd;fill:#D24B47;}
</style>
<sodipodi:namedview  bordercolor="#666666" borderopacity="1.0" id="base" inkscape:current-layer="layer1" inkscape:cx="211.7479" inkscape:cy="424.93116" inkscape:document-rotation="0" inkscape:document-units="mm" inkscape:pageopacity="0.0" inkscape:pageshadow="2" inkscape:window-height="1001" inkscape:window-maximized="1" inkscape:window-width="1920" inkscape:window-x="-9" inkscape:window-y="-9" inkscape:zoom="1.979899" pagecolor="#ffffff" showgrid="false">
	</sodipodi:namedview>
<g id="layer1" inkscape:groupmode="layer" inkscape:label="Р В Р’В Р В Р вЂ№Р В Р’В Р вЂ™Р’В»Р В Р’В Р РЋРІР‚СћР В Р’В Р Р†РІР‚С›РІР‚вЂњ 1">
	<path class="st0" d="M335.1,492.5l55.4-32c3.5-2,3.9-7,0.6-9.5L344,414.7c-3.5-2.7-8.6-0.6-9.2,3.8l-8.3,68.3
		C326,491.6,331,494.9,335.1,492.5z"/>
	<polygon class="st1" points="322.8,491.1 385.5,454.9 332.2,413.8 	"/>
	<path class="st2" d="M240.8,492.5l-55.4-32c-3.5-2-3.9-7-0.6-9.5l47.1-36.3c3.5-2.7,8.6-0.6,9.2,3.8l8.3,68.3
		C249.9,491.6,244.9,494.9,240.8,492.5z"/>
	<polygon class="st3" points="253.4,491.2 190.8,455.1 244.1,413.9 	"/>
	<polygon class="st0" points="285.3,409.5 333.1,409.5 362.2,532.6 285.3,532.6 	"/>
	<polygon class="st2" points="285.3,532.6 208.4,532.6 237.5,409.5 285.3,409.5 	"/>
	<polygon class="st4" points="285.7,512.9 222.1,512.9 243.9,421 285.3,421 	"/>
	<polygon class="st5" points="285.3,512.9 347.6,512.9 325.8,421 285.3,421 	"/>
	<ellipse class="st6" cx="284.3" cy="412.5" rx="50.1" ry="26.9"/>
	<path class="st7" d="M285.3,386.6c27.7,0,50.1,12,50.1,26.9s-22.4,26.9-50.1,26.9"/>
	
		<path id="path841" sodipodi:arc-type="slice" sodipodi:cx="102.43154" sodipodi:cy="88.824402" sodipodi:end="3.1348382" sodipodi:rx="37.419643" sodipodi:ry="37.419643" sodipodi:start="3.1368454" sodipodi:type="arc" class="st8" d="
		M234.8,82.6C234.7,55,257,32.5,284.6,32.3c27.6-0.1,50.1,22.1,50.3,49.7s-22.1,50.1-49.7,50.3S235.1,110.2,234.8,82.6l50.1-0.3
		L234.8,82.6z"/>
	
		<path id="path841-2" sodipodi:arc-type="slice" sodipodi:cx="102.43154" sodipodi:cy="88.824402" sodipodi:end="3.1348382" sodipodi:rx="33.828869" sodipodi:ry="33.828869" sodipodi:start="3.1368454" sodipodi:type="arc" class="st9" d="
		M239.6,82.6c-0.1-25,20-45.3,45-45.4c25-0.1,45.3,20,45.4,44.9c0.1,25-20,45.3-44.9,45.5C260.2,127.7,239.8,107.6,239.6,82.6
		l45.2-0.2L239.6,82.6z"/>
	
		<path id="path841-2-9" sodipodi:arc-type="slice" sodipodi:cx="102.43154" sodipodi:cy="88.824402" sodipodi:end="3.1348382" sodipodi:rx="30.61607" sodipodi:ry="30.61607" sodipodi:start="3.1368454" sodipodi:type="arc" class="st10" d="
		M243.9,82.5c-0.1-22.6,18.1-41,40.7-41.1s41,18.1,41.1,40.7s-18.1,41-40.7,41.1C262.5,123.4,244.1,105.2,243.9,82.5l40.9-0.2
		L243.9,82.5z"/>
	
		<path id="path841-2-9-6" sodipodi:arc-type="slice" sodipodi:cx="102.43154" sodipodi:cy="88.824402" sodipodi:end="3.1348382" sodipodi:rx="20.788689" sodipodi:ry="20.788689" sodipodi:start="3.1368454" sodipodi:type="arc" class="st11" d="
		M257.1,82.5c-0.1-15.3,12.3-27.8,27.6-27.9s27.8,12.3,27.9,27.6S300.4,110,285,110.1C269.7,110.2,257.2,97.9,257.1,82.5l27.8-0.1
		L257.1,82.5z"/>
	<path class="st12" d="M288.6,126.3c0,2.1-1.7,3.7-3.7,3.7c-2.1,0-3.7-1.7-3.7-3.7"/>
	<path id="rect927" class="st13" d="M273.8,82.3l2.6,26.1l-0.6,0.1l-2.6-26.1c0,0,0.1-0.2,0.3-0.2C273.7,82.2,273.8,82.3,273.8,82.3
		z"/>
	<path class="st14" d="M296.5,118.1C296.5,118.1,296.5,118.2,296.5,118.1c-3.6,0.3-7.5,0.5-11.6,0.5s-8-0.2-11.6-0.5l0,0v-8.2
		c0-0.8,0.6-1.4,1.4-1.4H295c0.8,0,1.4,0.6,1.4,1.4v8.2H296.5z"/>
	<path class="st14" d="M296.5,123.8c-3.7,0.2-7.6,0.4-11.7,0.4s-7.9-0.1-11.6-0.4c0-1.6,0-3.2,0-4.9c3.5,0.3,7.4,0.4,11.4,0.4
		c4.2,0,8.2-0.2,11.8-0.4C296.5,120.6,296.5,122.2,296.5,123.8z"/>
	<path class="st14" d="M296.5,125.7c0,0.7-0.6,1.3-1.3,1.4c-3.2,0.3-6.6,0.5-10.3,0.5c-3.7,0-7.2-0.2-10.3-0.5
		c-0.7-0.1-1.3-0.7-1.3-1.4v-1c3.6,0.2,7.5,0.4,11.6,0.4s8-0.1,11.6-0.4L296.5,125.7L296.5,125.7z"/>
	<path id="rect927_1_" class="st13" d="M296.5,82.2c0.2,0,0.3,0.2,0.3,0.2l-2.6,26.1l-0.6-0.1l2.6-26.1
		C296.1,82.3,296.3,82.2,296.5,82.2z"/>
	<g>
		<g>
			<path class="st15" d="M273.8,82.4c0.3-0.1,1.4-0.3,2.5,0.6c0.4,0.3,1.1,1.1,1.3,1.4c0.4,0.3,0.7,0.6,1.2,1.7
				c0.6,1.2,0.7,2.3,0.8,2.9c0.1,0.9,0,1.9-0.5,2.4c-0.7,0.6-1.4,0.7-1.5,0.6"/>
			<path class="st15" d="M281.3,82.4c-0.3-0.1-1.4-0.3-2.5,0.6c-0.4,0.3-1,1.1-1.2,1.4c-0.4,0.3-0.7,0.6-1.3,1.7
				c-0.6,1.2-0.7,2.3-0.8,2.9c-0.1,0.9,0,1.9,0.5,2.4c0.7,0.6,1.4,0.7,1.5,0.6"/>
		</g>
		<g>
			<path class="st15" d="M281.3,82.4c0.3-0.1,1.4-0.3,2.5,0.6c0.4,0.3,1.1,1.1,1.3,1.4c0.4,0.3,0.7,0.6,1.2,1.7
				c0.6,1.2,0.7,2.3,0.8,2.9c0.1,0.9,0,1.9-0.5,2.4c-0.7,0.6-1.4,0.7-1.5,0.6"/>
			<path class="st15" d="M288.7,82.4c-0.3-0.1-1.4-0.3-2.5,0.6c-0.4,0.3-1,1.1-1.2,1.4c-0.4,0.3-0.7,0.6-1.3,1.7
				c-0.6,1.2-0.7,2.3-0.8,2.9c-0.1,0.9,0,1.9,0.5,2.4c0.7,0.6,1.4,0.7,1.5,0.6"/>
		</g>
		<g>
			<path class="st15" d="M288.7,82.4c0.3-0.1,1.4-0.3,2.5,0.6c0.4,0.3,1.1,1.1,1.3,1.4c0.4,0.3,0.7,0.6,1.2,1.7
				c0.6,1.2,0.7,2.3,0.8,2.9c0.1,0.9,0,1.9-0.5,2.4c-0.7,0.6-1.4,0.7-1.5,0.6"/>
			<path class="st15" d="M296.1,82.4c-0.3-0.1-1.4-0.3-2.5,0.6c-0.4,0.3-1,1.1-1.2,1.4c-0.4,0.3-0.7,0.6-1.3,1.7
				c-0.6,1.2-0.7,2.3-0.8,2.9c-0.1,0.9,0,1.9,0.5,2.4c0.7,0.6,1.4,0.7,1.5,0.6"/>
		</g>
	</g>
	<g>
		<path class="st16" d="M242,425.5c2.7-2.2,8.8-7.9,11.9-17.4c2.6-8,1.8-14.9,1.2-18.3c0.7,0.8,6.3,6.6,14.8,6
			c7-0.5,11.3-4.9,12.3-6l0.7-216c-1.5-2.9-4.2-7.3-8.8-11.5c-4.8-4.4-9.7-6.6-12.8-7.8c-4.2-0.9-11.5-1.8-20.2,0
			c-10.1,2.1-17.1,6.9-20.6,9.6c-5.4,7.8-10.7,15.6-16.1,23.4c-7.3,0.3-17.9,1.5-29.8,6c-13.1,4.9-22.6,11.6-28.4,16.5
			c-1.8,1.8-5.4,5.7-7.3,11.9c-1.6,5.3-1.3,9.9-0.9,12.4c-3.2,2.4-8.7,7.2-12.8,15.1c-3.9,7.5-4.8,14.4-5,18.3
			c0.3,2.5,0.7,4.9,1,7.4c0.4,3.2,0.9,6.4,1.3,9.6c-1.9,1.3-5.6,4.2-8.3,9.2c-2.7,5-3.1,9.6-3.2,11.9c-0.3,1.7-0.7,5,0.5,8.7
			c1.9,6.1,6.4,9.2,7.8,10.1c-1.9,1.7-4.9,5-6.9,10.1c-2.7,6.9-1.9,13-1.4,15.6c0.3,2.7,1.3,9,6,15.1c4.8,6.4,10.7,9.1,13.3,10.1
			c0.8,5.3,2.8,14.6,9.2,24.3c6.6,10.2,14.7,16,19.3,18.8c3.3,2.4,7.6,5,12.8,7.3c6.7,2.9,12.8,4.3,17.4,5c4.7,0.5,9.5,1,14.2,1.6
			c5,0.6,10.1,1.1,15.1,1.7c3.5,0.1,8.8-0.2,14.7-2.3c3.8-1.3,6.9-3.1,9.2-4.6c4.5,2.7,11.3,6.1,20.2,8.3c8.4,2,18.2,2.6,23.3,2.3"
			/>
		<path class="st17" d="M119.1,324.6c2.7,1.5,11.4,5.8,22.9,4.1c11.5-1.7,18.5-8.4,20.6-10.5"/>
		<path class="st17" d="M255.2,389.7"/>
		<path class="st17" d="M255.2,389.7c-47.6,6-89.4-7.5-105.8-36.7c-3.2-5.8-6.3-13.7-7.3-24.3"/>
		<path class="st17" d="M122.3,284.7c0.1,0.9,0.6,6.6,5.5,10.5c4.7,3.8,10,3.3,11,3.2"/>
		<path class="st18" d="M282.3,329.1c-0.1,3.2-0.6,8.7-3.6,14.7c-2.3,4.8-5.3,8.1-7.4,10.1c2.4,3.4,5.2,8.1,7.4,14.2
			c2.5,6.9,3.3,13,3.6,17.4C282.3,366.7,282.3,347.9,282.3,329.1z"/>
		<path class="st17" d="M137.9,234.2c-0.3,2-0.5,5.6,0.8,9.8c1.5,4.8,4.2,8,5.7,9.5c1.4,1.4,3,3.2,5.8,4.6c3.8,1.9,7.5,2,9.3,1.8"/>
		<path class="st17" d="M282.3,308.1l-22.8,21c-2,1.5-6.8,4.8-13.8,5.6c-7,0.8-12.4-1.3-14.7-2.3c-4-2.6-12-8.3-17.9-18.8
			c-5.7-10.1-6.7-19.6-6.9-24.3c-3.4,1.3-8.5,2.8-14.7,3.2c-5,0.3-9.2-0.2-12.4-0.9c-3.2-1.3-7.5-3.6-11.9-7.4
			c-3.6-3.1-6.1-6.2-7.8-8.7"/>
		<path class="st18" d="M282.9,173.7c0.4,11-0.8,30.3-12.5,49.1c-2.8,4.4-5.8,8.2-8.7,11.5c2.8,3.5,6.6,9,9.6,16.5
			c3.1,7.7,3.6,13.2,5.5,27.1c0.9,6.2,2.2,15.7,4.1,27.4c0.6-41.8,1.3-83.7,1.9-125.5"/>
		<path class="st17" d="M261.7,234.2c-4.9-1.1-12.4-3.3-20.3-8.6c-6.4-4.3-10.8-9-13.7-12.5c2.1-2,5.5-6,7.8-11.9
			c2.1-5.6,2.3-10.4,2.1-13.3"/>
		<path class="st17" d="M203,219.5c1.7,0.7,7.9,3,15.1,0.5c5.3-1.8,8.4-5.3,9.6-6.9"/>
		<path class="st19" d="M196.6,283.6c0.7-4.6,3.6-20.3,17.4-33c12.4-11.4,26.3-13.6,31.2-14.2"/>
		<path class="st17" d="M172.7,334.8c-0.7,2.1-1.6,6-0.9,10.8c0.8,5.9,3.6,9.9,5,11.7c0.9,1.2,1.9,2.6,3.2,4c1.6,1.7,3.2,3,4.6,4.1
			c0.5,0.5,2.7,3,6.4,3.2c2.7,0.2,4.8-0.9,5.5-1.4c-1.4-4.1-2.8-8.3-4.1-12.4"/>
		<path class="st19" d="M196.6,354.8c2,14.9,15.2,25.6,29.4,24.8c13.1-0.8,24.3-11.1,26.1-24.8"/>
		<path class="st2" d="M455.7,290"/>
		<path class="st20" d="M282.3,389.7"/>
		<path class="st21" d="M327.7,425.5c-2.7-2.2-8.8-7.9-11.9-17.4c-2.6-8-1.8-14.9-1.2-18.3c-0.7,0.8-6.3,6.6-14.8,6
			c-7-0.5-11.3-4.9-12.3-6l-0.7-216c1.5-2.9,4.2-7.3,8.8-11.5c4.8-4.4,9.7-6.6,12.8-7.8c4.2-0.9,11.5-1.8,20.2,0
			c10.1,2.1,17.1,6.9,20.6,9.6c5.4,7.8,10.7,15.6,16.1,23.4c7.3,0.3,17.9,1.5,29.8,6c13.1,4.9,22.6,11.6,28.4,16.5
			c1.8,1.8,5.4,5.7,7.3,11.9c1.6,5.3,1.3,9.9,0.9,12.4c3.2,2.4,8.7,7.2,12.8,15.1c3.9,7.5,4.8,14.4,5,18.3c-0.3,2.5-0.7,4.9-1,7.4
			c-0.4,3.2-0.9,6.4-1.3,9.6c1.9,1.3,5.6,4.2,8.3,9.2c2.7,5,3.1,9.6,3.2,11.9c0.3,1.7,0.7,5-0.5,8.7c-1.9,6.1-6.4,9.2-7.8,10.1
			c1.9,1.7,4.9,5,6.9,10.1c2.7,6.9,1.9,13,1.4,15.6c-0.3,2.7-1.3,9-6,15.1c-4.8,6.4-10.7,9.1-13.3,10.1c-0.8,5.3-2.8,14.6-9.2,24.3
			c-6.6,10.2-14.7,16-19.3,18.8c-3.3,2.4-7.6,5-12.8,7.3c-6.7,2.9-12.8,4.3-17.4,5c-4.7,0.5-9.5,1-14.2,1.6
			c-5,0.6-10.1,1.1-15.1,1.7c-3.5,0.1-8.8-0.2-14.7-2.3c-3.8-1.3-6.9-3.1-9.2-4.6c-4.5,2.7-11.3,6.1-20.2,8.3
			c-8.4,2-16.9,2.6-22,2.3"/>
		<path class="st22" d="M450.6,324.6c-2.7,1.5-11.4,5.8-22.9,4.1c-11.5-1.7-18.5-8.4-20.6-10.5"/>
		<path class="st17" d="M314.5,389.7"/>
		<path class="st22" d="M314.5,389.7c47.6,6,89.4-7.5,105.8-36.7c3.2-5.8,6.3-13.7,7.3-24.3"/>
		<path class="st22" d="M447.4,284.7c-0.1,0.9-0.6,6.6-5.5,10.5c-4.7,3.8-10,3.3-11,3.2"/>
		<path class="st23" d="M287.4,329.1c0.1,3.2,0.6,8.7,3.6,14.7c2.3,4.8,5.3,8.1,7.4,10.1c-2.4,3.4-5.2,8.1-7.4,14.2
			c-2.5,6.9-3.3,13-3.6,17.4C287.4,366.7,287.4,347.9,287.4,329.1z"/>
		<path class="st22" d="M431.8,234.2c0.3,2,0.5,5.6-0.8,9.8c-1.5,4.8-4.2,8-5.7,9.5c-1.4,1.4-3,3.2-5.8,4.6c-3.8,1.9-7.5,2-9.3,1.8"
			/>
		<path class="st22" d="M287.4,308.1l22.8,21c2,1.5,6.8,4.8,13.8,5.6c7,0.8,12.4-1.3,14.7-2.3c4-2.6,12-8.3,17.9-18.8
			c5.7-10.1,6.7-19.6,6.9-24.3c3.4,1.3,8.5,2.8,14.7,3.2c5,0.3,9.2-0.2,12.4-0.9c3.2-1.3,7.5-3.6,11.9-7.4c3.6-3.1,6.1-6.2,7.8-8.7"
			/>
		<path class="st23" d="M286.7,173.7c-0.4,11,0.8,30.3,12.5,49.1c2.8,4.4,5.8,8.2,8.7,11.5c-2.8,3.5-6.6,9-9.6,16.5
			c-3.1,7.7-3.6,13.2-5.5,27.1c-0.9,6.2-2.2,15.7-4.1,27.4c-0.6-41.8-1.3-83.7-1.9-125.5"/>
		<path class="st22" d="M308,234.2c4.9-1.1,12.4-3.3,20.3-8.6c6.4-4.3,10.8-9,13.7-12.5c-2.1-2-5.5-6-7.8-11.9
			c-2.1-5.6-2.3-10.4-2.1-13.3"/>
		<path class="st22" d="M366.7,217.9c-1.7,0.5-7.9,2.2-15.1,0.4c-5.3-1.3-8.4-4-9.6-5.2"/>
		<path class="st24" d="M373.1,283.6c-0.7-4.6-3.6-20.3-17.4-33c-12.4-11.4-26.3-13.6-31.2-14.2"/>
		<path class="st22" d="M397,334.8c0.7,2.1,1.6,6,0.9,10.8c-0.8,5.9-3.6,9.9-5,11.7c-0.9,1.2-1.9,2.6-3.2,4c-1.6,1.7-3.2,3-4.6,4.1
			c-0.5,0.5-2.7,3-6.4,3.2c-2.7,0.2-4.8-0.9-5.5-1.4c1.4-4.1,2.8-8.3,4.1-12.4"/>
		<path class="st24" d="M373.1,354.8c-2,14.9-15.2,25.6-29.4,24.8c-13.1-0.8-24.3-11.1-26.1-24.8"/>
		<path class="st20" d="M287.4,389.7"/>
	</g>
	<path class="st2" d="M285.3,417.8c-1.9,0-19.1,1.7-31.1-9.8c-8-7.7-14.8-20.5-13.1-24.3c1.4-3.2,8.1,2,20.4,5.1
		c9.9,2.5,18.2,2.6,23.8,2.6"/>
	<path class="st0" d="M285.3,417.8c1.9,0,19.5,1.7,31.5-9.8c8-7.7,14.8-20.5,13.1-24.3c-1.4-3.2-8.1,2-20.4,5.1
		c-9.9,2.5-18.6,2.6-24.2,2.6"/>
	<path class="st7" d="M234.2,413.5"/>
	<path class="st20" d="M285.3,416.5c0,0-14.2-0.3-14.2-2c0-7.8,6.4-14.2,14.2-14.2"/>
	<path class="st25" d="M285.3,416.5c0,0,14.2-0.3,14.2-2c0-7.8-6.4-14.2-14.2-14.2"/>
	<path class="st2" d="M217.2,540.4c-27.2-3.6-49.3-9.5-48.7-14.3s23.7-8,51-4.4"/>
	<polygon class="st2" points="279.4,549.8 198.8,537.5 200.6,525.2 279.4,536.5 	"/>
	<path class="st0" d="M353.3,540.4c27.2-3.6,49.3-9.5,48.7-14.3c-0.6-4.9-23.7-8-51-4.4"/>
	<polygon class="st0" points="291.2,550.1 371.8,537.5 370,525.2 291.2,536.5 	"/>
	<ellipse class="st2" cx="276.2" cy="551" rx="3.1" ry="11.4"/>
	<ellipse class="st0" cx="294.3" cy="551" rx="3.1" ry="11.4"/>
</g>
<path class="st6" d="M397.5,715"/>
<path class="st6" d="M426.9,650.8"/>
</svg>
